# File created by Blade
# Date/Time:  Thu Jan 22 16:52:56 2015
# Frame Rate: 120.000 fps
#------------------------------------------------------
:FULLY-SPECIFIED
:DEGREES
1281
root 2.828565 3.812633 -0.400743 -35.390237 -3.947934 16.179369
RightUpLeg -54.350932 -24.504275 -34.959708
RightLeg 6.153622 -0.000000 -0.000000
RightFoot -3.704423 -20.615627 32.457689
RightToeBase -20.366553 -0.000000 0.000000
LeftUpLeg -38.081666 34.463696 15.542070
LeftLeg -1.797157 -0.000000 0.000000
LeftFoot 12.311176 25.818658 -33.131416
LeftToeBase 0.721700 -0.000000 -0.000000
Spine 71.049074 -23.056723 5.736564
RightShoulder 17.973860 53.092817 -30.849248
RightArm 14.984912 19.200912 41.144664
RightForeArm -26.852560 -0.000000 37.751229
RightHand -0.491682 -0.000000 -9.023338
RightHandThumb1 -24.326973 -0.000000 -32.862282
LeftShoulder -10.521414 3.679913 53.775361
LeftArm 106.813857 -43.070621 -41.042485
LeftForeArm 63.768237 0.000000 30.463887
LeftHand -7.797460 -0.000000 -3.807079
LeftHandThumb1 -26.253704 0.000000 33.147579
Head 57.156237 -16.622866 21.619689
1282
root 2.825834 3.812467 -0.402057 -35.376406 -3.954262 16.137521
RightUpLeg -54.302634 -24.486805 -34.969855
RightLeg 6.114271 -0.000000 -0.000000
RightFoot -3.721802 -20.591211 32.562826
RightToeBase -20.324270 -0.000000 0.000000
LeftUpLeg -38.149410 34.465732 15.554290
LeftLeg -1.726891 -0.000000 0.000000
LeftFoot 12.272050 25.812961 -33.185682
LeftToeBase 0.660835 -0.000000 -0.000000
Spine 71.081783 -23.102647 5.722156
RightShoulder 17.965274 53.150858 -30.909508
RightArm 14.961601 19.235268 41.252687
RightForeArm -26.842239 -0.000000 37.779890
RightHand -0.524115 -0.000000 -9.058152
RightHandThumb1 -24.326973 -0.000000 -32.862282
LeftShoulder -10.569119 3.724120 53.721350
LeftArm 106.790645 -43.150410 -40.973247
LeftForeArm 63.738209 0.000000 30.448557
LeftHand -7.763167 -0.000000 -3.761142
LeftHandThumb1 -26.253704 0.000000 33.147579
Head 57.080431 -16.467308 21.850170
1283
root 2.824700 3.813100 -0.403531 -35.374927 -3.949583 16.119639
RightUpLeg -54.282513 -24.511438 -34.938444
RightLeg 6.075304 -0.000000 -0.000000
RightFoot -3.682575 -20.606791 32.390927
RightToeBase -19.908324 -0.000000 0.000000
LeftUpLeg -38.190855 34.460068 15.552540
LeftLeg -1.667265 -0.000000 0.000000
LeftFoot 12.272836 25.753567 -33.111685
LeftToeBase 0.317684 -0.000000 -0.000000
Spine 71.116151 -23.104176 5.688694
RightShoulder 17.933412 53.156854 -30.937378
RightArm 14.981291 19.279873 41.329449
RightForeArm -26.774866 0.000000 37.762581
RightHand -0.520812 -0.000000 -9.139144
RightHandThumb1 -24.326973 -0.000000 -32.862282
LeftShoulder -10.579426 3.696739 53.734152
LeftArm 106.736914 -43.179720 -40.915259
LeftForeArm 63.724012 -0.000000 30.428765
LeftHand -7.766012 -0.000000 -3.735196
LeftHandThumb1 -26.253704 0.000000 33.147579
Head 57.033792 -16.465379 21.836115
1284
root 2.822176 3.812848 -0.405926 -35.375692 -3.947212 16.082064
RightUpLeg -54.252153 -24.529657 -34.906928
RightLeg 6.038690 -0.000000 -0.000000
RightFoot -3.644084 -20.586418 32.796490
RightToeBase -19.617992 -0.000000 0.000000
LeftUpLeg -38.229885 34.433263 15.583035
LeftLeg -1.600275 -0.000000 0.000000
LeftFoot 12.259794 25.681153 -33.088320
LeftToeBase 0.601825 -0.000000 -0.000000
Spine 71.166694 -23.112553 5.643337
RightShoulder 17.943011 53.166253 -30.935930
RightArm 14.967502 19.327062 41.378963
RightForeArm -26.673809 -0.000000 37.761178
RightHand -0.517116 0.000000 -9.188558
RightHandThumb1 -24.326973 -0.000000 -32.862282
LeftShoulder -10.582032 3.750507 53.737578
LeftArm 106.732546 -43.284396 -40.878278
LeftForeArm 63.719652 -0.000000 30.400821
LeftHand -7.763660 -0.000000 -3.667883
LeftHandThumb1 -26.253704 0.000000 33.147579
Head 56.986456 -16.447228 21.841310
1285
root 2.820190 3.813652 -0.409101 -35.380047 -3.923017 16.042563
RightUpLeg -54.215064 -24.584608 -34.874162
RightLeg 6.011894 -0.000000 -0.000000
RightFoot -3.638561 -20.579469 32.538481
RightToeBase -19.855419 -0.000000 0.000000
LeftUpLeg -38.279485 34.386887 15.587569
LeftLeg -1.537636 -0.000000 0.000000
LeftFoot 12.268976 25.614023 -33.039683
LeftToeBase 0.269863 -0.000000 -0.000000
Spine 71.214013 -23.108074 5.580055
RightShoulder 17.986777 53.185445 -30.848235
RightArm 14.951309 19.349381 41.382292
RightForeArm -26.512017 -0.000000 37.713702
RightHand -0.494159 -0.000000 -9.228641
RightHandThumb1 -24.326973 -0.000000 -32.862282
LeftShoulder -10.554743 3.780539 53.799260
LeftArm 106.732227 -43.368760 -40.868306
LeftForeArm 63.681179 -0.000000 30.332529
LeftHand -7.714783 -0.000000 -3.507705
LeftHandThumb1 -26.253704 0.000000 33.147579
Head 56.978158 -16.499471 21.733968
